HIERARCHY
ROOT hip
{
  OFFSET 0 0 0
  CHANNELS 6 Xposition Yposition Zposition Zrotation Yrotation Xrotation
  JOINT abdomen
  {
    OFFSET 0 20.6881 -0.73152
    CHANNELS 3 Zrotation Xrotation Yrotation
    JOINT chest
    {
      OFFSET 0 11.7043 -0.48768
      CHANNELS 3 Zrotation Xrotation Yrotation
      JOINT neck
      {
        OFFSET 0 22.1894 -2.19456
        CHANNELS 3 Zrotation Xrotation Yrotation
        JOINT head
        {
          OFFSET -0.24384 7.07133 1.2192
          CHANNELS 3 Zrotation Xrotation Yrotation
          JOINT leftEye
          {
            OFFSET 4.14528 8.04674 8.04672
            CHANNELS 3 Zrotation Xrotation Yrotation
            End Site
            {
              OFFSET 1 0 0
            }
          }
          JOINT rightEye
          {
            OFFSET -3.6576 8.04674 8.04672
            CHANNELS 3 Zrotation Xrotation Yrotation
            End Site
            {
              OFFSET 1 0 0
            }
          }
        }
      }
      JOINT rCollar
      {
        OFFSET -2.68224 19.2634 -4.8768
        CHANNELS 3 Zrotation Xrotation Yrotation
        JOINT rShldr
        {
          OFFSET -8.77824 -1.95073 1.46304
          CHANNELS 3 Zrotation Xrotation Yrotation
          JOINT rForeArm
          {
            OFFSET -28.1742 -1.7115 0.48768
            CHANNELS 3 Zrotation Xrotation Yrotation
            JOINT rHand
            {
              OFFSET -22.5879 0.773209 7.07136
              CHANNELS 3 Zrotation Xrotation Yrotation
              JOINT rThumb1
              {
                OFFSET -1.2192 -0.487915 3.41376
                CHANNELS 3 Zrotation Xrotation Yrotation
                JOINT rThumb2
                {
                  OFFSET -3.37035 -0.52449 3.41376
                  CHANNELS 3 Zrotation Xrotation Yrotation
                  End Site
                  {
                    OFFSET -1.78271 -1.18214 1.43049
                  }
                }
              }
              JOINT rIndex1
              {
                OFFSET -7.75947 0.938293 5.60832
                CHANNELS 3 Zrotation Xrotation Yrotation
                JOINT rIndex2
                {
                  OFFSET -2.54057 -0.884171 1.56538
                  CHANNELS 3 Zrotation Xrotation Yrotation
                  End Site
                  {
                    OFFSET -1.62519 -0.234802 1.16502
                  }
                }
              }
              JOINT rMid1
              {
                OFFSET -8.24714 1.18213 3.41376
                CHANNELS 3 Zrotation Xrotation Yrotation
                JOINT rMid2
                {
                  OFFSET -3.10165 -0.590103 1.0647
                  CHANNELS 3 Zrotation Xrotation Yrotation
                  End Site
                  {
                    OFFSET -2.48547 -0.328903 0.83742
                  }
                }
              }
              JOINT rRing1
              {
                OFFSET -8.82822 0.546677 1.51678
                CHANNELS 3 Zrotation Xrotation Yrotation
                JOINT rRing2
                {
                  OFFSET -2.60934 -0.819778 -0.0198488
                  CHANNELS 3 Zrotation Xrotation Yrotation
                  End Site
                  {
                    OFFSET -2.33842 -0.294052 0.168128
                  }
                }
              }
              JOINT rPinky1
              {
                OFFSET -8.27202 -0.0477905 -0.4584
                CHANNELS 3 Zrotation Xrotation Yrotation
                JOINT rPinky2
                {
                  OFFSET -1.82734 -0.647385 -0.700984
                  CHANNELS 3 Zrotation Xrotation Yrotation
                  End Site
                  {
                    OFFSET -1.69225 -0.51767 -0.607171
                  }
                }
              }
            }
          }
        }
      }
      JOINT lCollar
      {
        OFFSET 2.68224 19.2634 -4.8768
        CHANNELS 3 Zrotation Xrotation Yrotation
        JOINT lShldr
        {
          OFFSET 8.77824 -1.95073 1.46304
          CHANNELS 3 Zrotation Xrotation Yrotation
          JOINT lForeArm
          {
            OFFSET 28.1742 -1.7115 0.48768
            CHANNELS 3 Zrotation Xrotation Yrotation
            JOINT lHand
            {
              OFFSET 22.5879 0.773209 7.07136
              CHANNELS 3 Zrotation Xrotation Yrotation
              JOINT lThumb1
              {
                OFFSET 1.2192 -0.487915 3.41376
                CHANNELS 3 Zrotation Xrotation Yrotation
                JOINT lThumb2
                {
                  OFFSET 3.37035 -0.52449 3.41376
                  CHANNELS 3 Zrotation Xrotation Yrotation
                  End Site
                  {
                    OFFSET 1.78271 -1.18214 1.43049
                  }
                }
              }
              JOINT lIndex1
              {
                OFFSET 7.75947 0.938293 5.60832
                CHANNELS 3 Zrotation Xrotation Yrotation
                JOINT lIndex2
                {
                  OFFSET 2.54057 -0.884171 1.56538
                  CHANNELS 3 Zrotation Xrotation Yrotation
                  End Site
                  {
                    OFFSET 1.62519 -0.234802 1.16502
                  }
                }
              }
              JOINT lMid1
              {
                OFFSET 8.24714 1.18213 3.41376
                CHANNELS 3 Zrotation Xrotation Yrotation
                JOINT lMid2
                {
                  OFFSET 3.10165 -0.590103 1.0647
                  CHANNELS 3 Zrotation Xrotation Yrotation
                  End Site
                  {
                    OFFSET 2.48547 -0.328903 0.83742
                  }
                }
              }
              JOINT lRing1
              {
                OFFSET 8.82822 0.546677 1.51678
                CHANNELS 3 Zrotation Xrotation Yrotation
                JOINT lRing2
                {
                  OFFSET 2.60934 -0.819778 -0.0198488
                  CHANNELS 3 Zrotation Xrotation Yrotation
                  End Site
                  {
                    OFFSET 2.33842 -0.294052 0.168128
                  }
                }
              }
              JOINT lPinky1
              {
                OFFSET 8.27202 -0.0477905 -0.4584
                CHANNELS 3 Zrotation Xrotation Yrotation
                JOINT lPinky2
                {
                  OFFSET 1.82734 -0.647385 -0.700984
                  CHANNELS 3 Zrotation Xrotation Yrotation
                  End Site
                  {
                    OFFSET 1.69225 -0.51767 -0.607171
                  }
                }
              }
            }
          }
        }
      }
    }
  }
  JOINT rButtock
  {
    OFFSET -8.77824 4.35084 1.2192
    CHANNELS 3 Zrotation Xrotation Yrotation
    JOINT rThigh
    {
      OFFSET 0 -1.70687 -2.19456
      CHANNELS 3 Zrotation Xrotation Yrotation
      JOINT rShin
      {
        OFFSET 0 -36.8199 0.73152
        CHANNELS 3 Zrotation Xrotation Yrotation
        JOINT rFoot
        {
          OFFSET 0.73152 -45.1104 -5.12064
          CHANNELS 3 Zrotation Xrotation Yrotation
          End Site
          {
            OFFSET -1.1221 -3.69964 12.103
          }
        }
      }
    }
  }
  JOINT lButtock
  {
    OFFSET 8.77824 4.35084 1.2192
    CHANNELS 3 Zrotation Xrotation Yrotation
    JOINT lThigh
    {
      OFFSET 0 -1.70687 -2.19456
      CHANNELS 3 Zrotation Xrotation Yrotation
      JOINT lShin
      {
        OFFSET 0 -36.8199 0.73152
        CHANNELS 3 Zrotation Xrotation Yrotation
        JOINT lFoot
        {
          OFFSET -0.73152 -45.1104 -5.12064
          CHANNELS 3 Zrotation Xrotation Yrotation
          End Site
          {
            OFFSET 1.1221 -3.69964 12.103
          }
        }
      }
    }
  }
}
MOTION
Frames:	6
Frame Time:	0.00833333
-170.402 85.4571 14.9697 0.0 0.0 0.0 1.92987 -0.00172185 0.0523823 0.532079 0.00507095 0.092122 2.03439e-14 -7.95139e-16 -7.20594e-16 6.14835e-14 3.18055e-15 -2.33727e-15 -0.0 0.0 0.0 -0.0 0.0 0.0 1.0485e-14 2.21303e-17 -2.48481e-16 2.16697e-13 8.44835e-16 -6.55989e-15 3.68751e-12 -1.07244e-12 -1.81292e-13 4.20738e-11 1.19698e-12 -1.50758e-12 9.92654e-11 2.62089e-13 -3.67672e-12 1.71414e-10 4.48458e-13 -6.34918e-12 9.92707e-11 2.63986e-13 -3.6799e-12 7.73091 5.47488 0.417314 9.92647e-11 2.62098e-13 -3.67036e-12 2.90554 0.965183 0.102902 9.92729e-11 2.62595e-13 -3.67513e-12 10.2786 0.731801 0.0259123 9.92645e-11 2.63986e-13 -3.67354e-12 2.22167 -0.733487 -0.20892 1.04874e-14 2.52363e-17 -5.46658e-16 2.12007e-13 6.08778e-16 -8.34896e-15 3.67354e-12 1.11697e-12 -1.87653e-13 4.2094e-11 -1.00453e-12 -1.49804e-12 9.92786e-11 2.38029e-13 -3.68308e-12 1.71454e-10 4.10292e-13 -6.35872e-12 9.92774e-11 2.37746e-13 -3.67672e-12 -7.73091 5.47488 -0.417314 9.92776e-11 2.38542e-13 -3.67672e-12 -2.90554 0.965183 -0.102902 9.92638e-11 2.3884e-13 -3.67593e-12 -10.2786 0.731801 -0.0259123 9.92792e-11 2.40529e-13 -3.6799e-12 -2.22167 -0.733487 0.20892 -2.03217e-16 0.0 -3.88251e-19 1.95952 -7.26115 -0.192019 0.00412043 7.58527 0.107061 -0.521327 -0.330662 0.0523326 2.03217e-16 0.0 3.88251e-19 0.976718 -1.92613 0.000869182 0.00898687 -2.0786 0.0740603 0.487832 3.99809 -0.136731
-163.533 85.6006 6.53952 22.9434 85.6005 22.1956 0.584479 1.42684 1.22938 0.79176 -1.10678 0.4546 1.38644 -1.44412 0.725167 -0.797071 -0.136182 0.963978 -0.0 0.0 0.0 -0.0 0.0 0.0 -3.91986e-15 -5.75329e-13 3.42476e-15 -4.31444 -0.899531 0.0123984 0.38984 0.16985 -0.573517 -0.000843341 -0.124124 -0.0174187 7.04001e-11 3.09007e-09 1.42763e-10 1.21591e-10 5.34502e-09 2.46868e-10 7.04047e-11 3.09007e-09 1.42759e-10 7.73091 5.47488 0.417314 7.04001e-11 3.09006e-09 1.42768e-10 2.90554 0.965183 0.102902 7.04067e-11 3.09007e-09 1.42764e-10 10.2786 0.731801 0.0259123 7.03988e-11 3.09007e-09 1.42767e-10 2.22167 -0.733487 -0.20892 -3.95065e-15 -5.75327e-13 3.1526e-15 -21.9334 10.7434 -0.598039 3.38891 -1.40494 -5.43059 -0.0212125 3.23173 -0.451583 5.11072e-10 -1.23316e-10 -2.57335e-10 8.8045e-10 -2.13127e-10 -4.49611e-10 5.11072e-10 -1.23312e-10 -2.5733e-10 -7.73091 5.47488 -0.417314 5.11072e-10 -1.23311e-10 -2.57333e-10 -2.90554 0.965183 -0.102902 5.1106e-10 -1.23311e-10 -2.57332e-10 -10.2786 0.731801 -0.0259123 5.11072e-10 -1.2331e-10 -2.57338e-10 -2.22167 -0.733487 0.20892 -2.03217e-16 0.0 -3.88251e-19 -1.00388 -4.75682 -1.43332 0.00173172 8.0449 0.114282 -0.522615 -4.43294 -0.82048 2.03217e-16 0.0 3.88251e-19 1.92514 1.31561 -0.213021 0.00533474 -2.43583 0.0544293 0.639473 0.743605 3.38437
-163.523 85.6047 6.47529 26.5481 85.2887 25.769 -0.898952 2.93619 2.47163 1.08414 -2.28358 0.837105 2.88825 -2.97152 1.49434 -1.63151 -0.274705 1.9866 -0.0 0.0 0.0 -0.0 0.0 0.0 -2.00775e-14 -1.14895e-12 1.16755e-14 -10.171 -2.39875 0.0330872 1.04713 0.452796 -1.52942 -0.00241662 -0.330997 -0.0464506 5.80918e-11 6.50765e-09 2.83449e-10 1.0024e-10 1.12566e-08 4.90043e-10 5.80958e-11 6.50765e-09 2.83444e-10 7.73091 5.47488 0.417314 5.80927e-11 6.50764e-09 2.83452e-10 2.90554 0.965183 0.102902 5.80976e-11 6.50765e-09 2.83451e-10 10.2786 0.731801 0.0259123 5.80899e-11 6.50764e-09 2.83455e-10 2.22167 -0.733487 -0.20892 -2.01435e-14 -1.14895e-12 1.14301e-14 -44.8633 22.0901 -1.30219 6.68356 -2.84825 -11.1823 0.0121064 6.65048 -0.934197 9.27947e-10 -2.48744e-10 -5.14017e-10 1.59821e-09 -4.29904e-10 -8.98223e-10 9.27948e-10 -2.48737e-10 -5.14013e-10 -7.73091 5.47488 -0.417314 9.27949e-10 -2.48735e-10 -5.14018e-10 -2.90554 0.965183 -0.102902 9.27937e-10 -2.48734e-10 -5.14018e-10 -10.2786 0.731801 -0.0259123 9.27946e-10 -2.48734e-10 -5.14026e-10 -2.22167 -0.733487 0.20892 -2.03217e-16 0.0 -3.88251e-19 -4.01922 -2.1094 -2.74711 -0.000868484 8.53193 0.121961 -0.660534 -8.76662 -1.7534 2.03217e-16 0.0 3.88251e-19 2.95587 4.74226 -0.44184 0.00127985 -2.81304 0.0336942 1.23319 -2.66902 7.11241
-163.537 85.5941 6.50278 24.8518 85.4608 24.1257 -2.28268 4.27656 3.59225 1.35339 -3.32987 1.1813 4.26924 -4.32959 2.18104 -2.37747 -0.408084 2.892 -0.0 0.0 0.0 -0.0 0.0 0.0 -3.27297e-14 -1.72603e-12 1.07713e-14 -12.9422 -2.69859 0.0372318 1.17972 0.509347 -1.72061 -0.00275644 -0.372372 -0.0522571 1.26694e-11 9.26967e-09 4.35642e-10 2.19472e-11 1.60342e-08 7.53302e-10 1.26728e-11 9.26967e-09 4.35637e-10 7.73091 5.47488 0.417314 1.2671e-11 9.26967e-09 4.35644e-10 2.90554 0.965183 0.102902 1.26745e-11 9.26967e-09 4.35644e-10 10.2786 0.731801 0.0259123 1.26672e-11 9.26967e-09 4.35649e-10 2.22167 -0.733487 -0.20892 -3.28268e-14 -1.72603e-12 1.05511e-14 -65.0237 32.2149 -2.08353 9.37803 -4.06362 -16.329 0.0910586 9.69276 -1.37219 1.33466e-09 -3.70424e-10 -7.6464e-10 2.29844e-09 -6.40202e-10 -1.33611e-09 1.33466e-09 -3.70413e-10 -7.64637e-10 -7.73091 5.47488 -0.417314 1.33466e-09 -3.70411e-10 -7.64644e-10 -2.90554 0.965183 -0.102902 1.33465e-09 -3.70409e-10 -7.64644e-10 -10.2786 0.731801 -0.0259123 1.33466e-09 -3.7041e-10 -7.64654e-10 -2.22167 -0.733487 0.20892 -2.03217e-16 0.0 -3.88251e-19 -6.60569 0.246912 -3.90422 -0.00339783 8.96416 0.128797 -0.907882 -12.626 -2.62219 2.03217e-16 0.0 3.88251e-19 3.8951 7.79862 -0.646612 -0.0027049 -3.15031 0.0151402 2.13969 -5.66606 10.4768
-163.498 85.6226 6.46507 26.9719 85.516 26.0722 -3.29341 5.20143 4.40038 1.53507 -4.05042 1.42807 5.27011 -5.26707 2.65622 -2.91115 -0.529015 3.50432 -0.0 0.0 0.0 -0.0 0.0 0.0 -3.66179e-14 -2.31178e-12 -1.30204e-14 -8.0 4.72161e-09 2.60833e-10 -4.18147e-11 7.23319e-10 2.79666e-11 -1.25072e-11 4.02961e-09 2.53738e-10 -1.15538e-10 1.03928e-08 6.16601e-10 -1.98701e-10 1.7977e-08 1.06677e-09 -1.15536e-10 1.03928e-08 6.16595e-10 7.73091 5.47488 0.417314 -1.15536e-10 1.03928e-08 6.16601e-10 2.90554 0.965183 0.102902 -1.15533e-10 1.03928e-08 6.16602e-10 10.2786 0.731801 0.0259123 -1.1554e-10 1.03928e-08 6.16608e-10 2.22167 -0.733487 -0.20892 -3.67361e-14 -2.31178e-12 -1.32192e-14 -78.83 39.2991 -2.79349 11.1243 -4.85321 -19.9276 0.173765 11.7962 -1.68191 1.71596e-09 -4.82732e-10 -1.00012e-09 2.95488e-09 -8.34304e-10 -1.74721e-09 1.71597e-09 -4.8272e-10 -1.00011e-09 -7.73091 5.47488 -0.417314 1.71597e-09 -4.82718e-10 -1.00012e-09 -2.90554 0.965183 -0.102902 1.71596e-09 -4.82716e-10 -1.00012e-09 -10.2786 0.731801 -0.0259123 1.71596e-09 -4.82717e-10 -1.00013e-09 -2.22167 -0.733487 0.20892 -2.03217e-16 0.0 -3.88251e-19 -8.35199 1.88263 -4.67088 -0.00549817 9.25941 0.133476 -1.15968 -15.3105 -3.27838 2.03217e-16 0.0 3.88251e-19 4.55303 9.9297 -0.785049 -0.00599824 -3.38775 0.00205998 2.98808 -7.72981 12.8639
-163.508 85.6174 6.50138 25.358 85.3231 24.5079 -3.72835 5.53935 4.78865 1.5546 -4.27949 1.54261 5.71045 -5.62962 2.82492 -3.14416 -0.658164 3.68768 -0.0 0.0 0.0 -0.0 0.0 0.0 -2.89249e-14 -3.20026e-12 -7.18117e-14 9.90335 7.77152 -0.0804443 -3.23363 -1.46485 4.96864 0.00423451 1.08815 0.152727 -4.08355e-10 8.96853e-09 9.16923e-10 -7.02288e-10 1.55134e-08 1.58759e-09 -4.08354e-10 8.96853e-09 9.16917e-10 7.73091 5.47488 0.417314 -4.08354e-10 8.96853e-09 9.16923e-10 2.90554 0.965183 0.102902 -4.08349e-10 8.96854e-09 9.16923e-10 10.2786 0.731801 0.0259123 -4.08355e-10 8.96853e-09 9.16928e-10 2.22167 -0.733487 -0.20892 -2.90492e-14 -3.20026e-12 -7.19876e-14 -84.0396 42.1744 -3.21565 11.7879 -5.15236 -21.3557 0.208596 12.4943 -1.78659 2.18275e-09 -6.08271e-10 -1.24421e-09 3.75896e-09 -1.05134e-09 -2.17357e-09 2.18275e-09 -6.0826e-10 -1.24421e-09 -7.73091 5.47488 -0.417314 2.18275e-09 -6.08259e-10 -1.24422e-09 -2.90554 0.965183 -0.102902 2.18275e-09 -6.08258e-10 -1.24422e-09 -10.2786 0.731801 -0.0259123 2.18275e-09 -6.08258e-10 -1.24423e-09 -2.22167 -0.733487 0.20892 -2.03217e-16 0.0 -3.88251e-19 -9.0288 2.51122 -4.87814 -0.00689827 9.36288 0.135105 -1.29033 -16.3515 -3.59578 2.03217e-16 0.0 3.88251e-19 4.78875 10.7644 -0.817605 -0.0081199 -3.48605 -0.00337072 3.38452 -8.57997 13.8246
